inDegrees=no
num_controls=7
num_derivatives=13
num_iterations=140
num_multipliers=7
num_parameters=0
num_slacks=7
num_states=26
objective=0.448067
objective_accelerations=0.049501
objective_balance=0.007436
objective_effort=0.036564
objective_height=0.349629
objective_ligament=0.004937
solver_duration=2033.325646
status=Solve_Succeeded
success=true
DataType=double
version=3
OpenSimVersion=4.5
endheader
time	/jointset/ground_pelvis/pelvis_tilt/value	/jointset/ground_pelvis/pelvis_tx/value	/jointset/ground_pelvis/pelvis_ty/value	/jointset/hip_l/hip_flexion_l/value	/jointset/hip_l/hip_adduction_l/value	/jointset/hip_l/hip_rotation_l/value	/jointset/back/lumbar_extension/value	/jointset/patellofemoral_l/patellar_flexion_l/value	/jointset/knee_l/knee_flexion_l/value	/jointset/knee_l/knee_adduction_l/value	/jointset/knee_l/knee_rotation_l/value	/jointset/ankle_l/ankle_angle_l/value	/jointset/subtalar_l/subtalar_angle_l/value	/jointset/ground_pelvis/pelvis_tilt/speed	/jointset/ground_pelvis/pelvis_tx/speed	/jointset/ground_pelvis/pelvis_ty/speed	/jointset/hip_l/hip_flexion_l/speed	/jointset/hip_l/hip_adduction_l/speed	/jointset/hip_l/hip_rotation_l/speed	/jointset/back/lumbar_extension/speed	/jointset/patellofemoral_l/patellar_flexion_l/speed	/jointset/knee_l/knee_flexion_l/speed	/jointset/knee_l/knee_adduction_l/speed	/jointset/knee_l/knee_rotation_l/speed	/jointset/ankle_l/ankle_angle_l/speed	/jointset/subtalar_l/subtalar_angle_l/speed	/forceset/tau_hip_flexion_l	/forceset/tau_hip_adduction_l	/forceset/tau_hip_rotation_l	/forceset/tau_knee_flexion_l	/forceset/tau_ankle_angle_l	/forceset/tau_subtalar_angle_l	/forceset/tau_lumbar_extension	lambda_cid13_p0	lambda_cid13_p1	lambda_cid13_p2	lambda_cid13_p3	lambda_cid13_p4	lambda_cid13_p5	lambda_cid14_p0	/jointset/ground_pelvis/pelvis_tilt/accel	/jointset/ground_pelvis/pelvis_tx/accel	/jointset/ground_pelvis/pelvis_ty/accel	/jointset/hip_l/hip_flexion_l/accel	/jointset/hip_l/hip_adduction_l/accel	/jointset/hip_l/hip_rotation_l/accel	/jointset/back/lumbar_extension/accel	/jointset/patellofemoral_l/patellar_flexion_l/accel	/jointset/knee_l/knee_flexion_l/accel	/jointset/knee_l/knee_adduction_l/accel	/jointset/knee_l/knee_rotation_l/accel	/jointset/ankle_l/ankle_angle_l/accel	/jointset/subtalar_l/subtalar_angle_l/accel	gamma_cid13_p0	gamma_cid13_p1	gamma_cid13_p2	gamma_cid13_p3	gamma_cid13_p4	gamma_cid13_p5	gamma_cid14_p0
0.5	-0.4441118112642148	-0.07394543779931763	0.7636835558924253	1.261139270924026	-0.3097991158130156	-0.04689414778372069	-0.3298225772054726	0.6873779506049472	0.6873779506049456	-0.1731953452155344	0.1744828552467167	0.03625783160476678	-0.04926259296096206	-0.7359860232430222	-0.2706034507031163	-0.4960568479820865	2.371978675579597	-0.03386705920351005	0.6196856420599078	-0.6220431851470356	1.77731400553042	1.777314005530482	-0.006164462834183573	0.0008024194758145337	0.2357982960371587	-0.008330212475821086	-0.2437010858924328	0.01732209169621005	-0.02160088174653896	-0.2043604605309202	0.143618463441543	0.04194838241113832	0.2195919140064719	7.304052146024177	-22.23955465927777	6.275752447996879	-5.492498127379224	-607.3651193490712	-59.15584224423418	-28.39837847289826	0.6200237869635447	0.6996037477422142	-0.3216266792583172	-1.510851439544759	0.6000993358601978	-0.2948897068741297	1.771850573808111	-1.08437914735739	-1.084379147357407	0.02747536649632752	-0.02018684521494441	-0.1331333660068171	0.5794373053161032	-2.740914263494328e-07	-8.169269031433981e-07	1.347365212498249e-06	7.172583396967309e-08	-3.671701706811329e-07	3.861362203088486e-08	-3.078647824028299e-07
0.51	-0.4514390742173671	-0.07661619120151925	0.7587079623987607	1.284779266740248	-0.3101092916339815	-0.04071201870071808	-0.3359544411627272	0.7050939180040267	0.7050939180040273	-0.17325868396571	0.1744902238198795	0.03860813564242284	-0.04931858141228864	-0.7293711831030655	-0.2635252677351681	-0.4989602457423523	2.355712274544342	-0.02817733290687509	0.6166445573469503	-0.6042626910981875	1.765642877289473	1.765642877289527	-0.006481403162306622	0.0006842054180823753	0.2342142649986451	-0.00287761137988183	-0.2518542054850007	0.01792487085515186	-0.02170127054342554	-0.2056340584805769	0.1434480225031603	0.04249097641733198	0.2259053009499761	7.002364541711092	-22.31522840302348	6.165423668132857	-5.425034576175912	-611.9051625585083	-58.7661804989673	-27.36663033040074	0.6964811332347405	0.7152468504173001	-0.2595363695181834	-1.730816366450344	0.5518952833398302	-0.323364919927411	1.791186101278629	-1.243901569179252	-1.243901569180419	-0.05803573540796682	-0.006054640092978795	-0.1782756394946317	0.5265692345555155	-3.25677394693671e-07	-6.48856650047787e-07	1.599209443324087e-06	1.326140630077463e-07	-3.884285317804233e-07	9.385786944369622e-08	-3.288392949674993e-07
0.52	-0.458697335367975	-0.07921549851822218	0.753706366918472	1.30824734215993	-0.3103628729906262	-0.03456322987812917	-0.3419064927233221	0.7226860897393531	0.7226860897393568	-0.1733245435197544	0.1744967270616586	0.04094115183634953	-0.04932036430809129	-0.7221856627341887	-0.2563142336033722	-0.5012572453069155	2.337594596271708	-0.02254816633925259	0.6130175899771589	-0.5860807058151207	1.752554872779891	1.752554872779937	-0.00666862360808363	0.0006293531987251116	0.2323407272912915	0.002510898628964601	-0.2600073250775694	0.01852765001409335	-0.02180165934030467	-0.2069076564302346	0.1432775815647777	0.04303357042352528	0.2322186878934796	6.69737296388606	-22.39418274218449	6.060026797510702	-5.378851736052268	-616.5187606549947	-58.45572611843413	-26.33231626902361	0.7341598327475912	0.7261739805117488	-0.2003470401177903	-1.881106887020598	0.5879873900577071	-0.412066238240905	1.852148820651846	-1.367754401084512	-1.367754401084555	0.05341934296553658	-0.007514477539962011	-0.1910346997748128	0.566619087897536	-3.060185820391349e-07	-5.792844721960364e-07	1.523985849562117e-06	1.280075935484094e-07	-3.570044363299654e-07	1.221576650459195e-07	-3.098999095983451e-07
0.53	-0.4658810320060308	-0.08174210618059098	0.7486848482014875	1.331525267406771	-0.3105604189251357	-0.02845332345339046	-0.3476747978981055	0.7401404284027389	0.7401404284027338	-0.1733915827671346	0.1745027356363375	0.0432540642766461	-0.04926852660140183	-0.7144650059350206	-0.248991795900527	-0.5029419924020134	2.317690513947857	-0.0169816112934872	0.6088963176109609	-0.5675294894749173	1.73807675149934	1.738076751499422	-0.006744617695697046	0.0005661498592247049	0.2301932371308955	0.007834538284226302	-0.267958330542174	0.01890929027493162	-0.02188100773783265	-0.2083544945281011	0.1432669543059722	0.04337713909737228	0.2383286666596214	6.438179941092725	-22.39639187759725	5.944304208588078	-5.305886198509806	-621.1066139893542	-58.04415118190379	-25.29799172802895	0.8042812304723461	0.7376292282394959	-0.1369307907885068	-2.090093938692497	0.5377708723597807	-0.4225304893940988	1.864233990704896	-1.523197260831485	-1.523197260826107	-0.03894620958823201	-0.006973305376732662	-0.2338827102438989	0.5118337940313041	-2.781848064863466e-07	-5.264407667123508e-07	1.407622590904472e-06	1.144845529783794e-07	-3.204364035348734e-07	1.410652943557259e-07	-2.864010466081855e-07
0.54	-0.4729848695507006	-0.08419501935331761	0.7436496035642356	1.354595144823647	-0.3107029430470828	-0.02238670430303077	-0.3532560657194869	0.7574429145994611	0.7574429145994472	-0.1734595494403845	0.174507862168974	0.04554404650812429	-0.04916413302022159	-0.7062138440570158	-0.2415753356749379	-0.5040024293604189	2.295985030279	-0.01154380382676853	0.604360135101369	-0.5486732351347021	1.722184379447142	1.72218437944726	-0.006854108781848549	0.0004529447908583276	0.2277546855276225	0.01302207352712069	-0.2759093360067797	0.01929093053576921	-0.0219603561353705	-0.2098013326259663	0.1432563270471667	0.0437207077712186	0.244438645425762	6.174691919944509	-22.40129656044484	5.832950111368583	-5.249115868344051	-625.7811121884183	-57.705759307397	-24.26424839959664	0.8402608485149438	0.7449784850604907	-0.07548501277932163	-2.241387156021867	0.5622378742483621	-0.4950482669196739	1.913156420654185	-1.650604555413991	-1.650604555413969	0.04671994325792023	-0.0175148233131546	-0.2492469883502412	0.5393982054240717	-2.413063911312364e-07	-4.921051583167376e-07	1.245743107255866e-06	9.109636990290141e-08	-2.781772060180586e-07	1.495815907462623e-07	-2.578576551862754e-07
0.55	-0.4800036876683842	-0.08657337911836011	0.7386068678585548	1.377439327340653	-0.3107915722614216	-0.01636790121593905	-0.3586473223038814	0.774579720390744	0.774579720390746	-0.1735281399817183	0.1745118622300826	0.04780832970542324	-0.04900836019823923	-0.6974678781986399	-0.234088176931965	-0.5044394676529902	2.27256629090399	-0.006208859217594769	0.5993195575257649	-0.5295433706810128	1.70495337261374	1.704953372613817	-0.006862373244835512	0.0003545604089586108	0.2250563913922113	0.01810408754786588	-0.2836297773427771	0.01948486382704262	-0.02201771079310667	-0.2112969910755907	0.1432625304953792	0.04390999093401553	0.2503109073909112	5.919130213588606	-22.34146224583146	5.712278596422731	-5.14044769252728	-630.3216264841742	-57.28144199450889	-23.23187568651538	0.9040209832850912	0.7518662969737717	-0.01207764443153106	-2.434929168713084	0.515002346637093	-0.5209166020436076	1.918108117207832	-1.792811218955043	-1.792811218961226	-0.02439271141506452	-0.005128849482273054	-0.2869526909593282	0.4882823868832769	-2.122169815360476e-07	-4.496186437185432e-07	1.121734292079005e-06	7.482366609199997e-08	-2.426925346366166e-07	1.592186509883713e-07	-2.34052186406381e-07
0.5600000000000001	-0.486932594821727	-0.08887661095036124	0.733562908888561	1.400040760095814	-0.3108276761111918	-0.01040197472443675	-0.3638462389118427	0.7915375236193632	0.7915375236193796	-0.1735967717817509	0.1745150527265977	0.0500442635484034	-0.04880263135875271	-0.6882316511888176	-0.2265497490666672	-0.5042470822229809	2.247435077910078	-0.001038730913011838	0.5937848159836477	-0.5102052398480631	1.686383866914269	1.686383866914305	-0.00686236052134505	0.0002910318729033653	0.2220848146638892	0.0230132770279524	-0.2913502186787769	0.01967879711831327	-0.02207506545085807	-0.2127926495252137	0.143268733943591	0.04409927409680946	0.2561831693560586	5.657759218517072	-22.28337481066997	5.595043373821832	-5.038493871130735	-634.9673742113661	-56.92090527868721	-22.20199880942089	0.9383130788042235	0.7552323095254474	0.05039973173681202	-2.58388187980241	0.5292746133301967	-0.5938810602222833	1.954809696506231	-1.918304328627713	-1.91830432862769	0.04837538055340661	-0.01054365414426377	-0.3039035069324211	0.5048332972923384	-1.924743788527641e-07	-3.973510416772519e-07	1.043170279068236e-06	6.708953739859007e-08	-2.153372946176216e-07	1.702006278523674e-07	-2.159322247969055e-07
